<?xml version="1.0" standalone="no" ?>
<!DOCTYPE svg PUBLIC "-//W3C//DTD SVG 1.1//EN" "http://www.w3.org/Graphics/SVG/1.1/DTD/svg11.dtd">
<svg width="444" height="30" viewBox="0 0 444 30" version="1.1" xmlns="http://www.w3.org/2000/svg">
	<desc>BATCH-1764835669-2846</desc>
	<g id="bars" fill="rgb(0,0,0)" stroke="none">
		<rect x="0" y="0" width="4" height="30" />
		<rect x="6" y="0" width="2" height="30" />
		<rect x="12" y="0" width="2" height="30" />
		<rect x="22" y="0" width="2" height="30" />
		<rect x="30" y="0" width="2" height="30" />
		<rect x="34" y="0" width="4" height="30" />
		<rect x="44" y="0" width="2" height="30" />
		<rect x="48" y="0" width="2" height="30" />
		<rect x="56" y="0" width="4" height="30" />
		<rect x="66" y="0" width="4" height="30" />
		<rect x="72" y="0" width="6" height="30" />
		<rect x="84" y="0" width="2" height="30" />
		<rect x="88" y="0" width="2" height="30" />
		<rect x="96" y="0" width="2" height="30" />
		<rect x="104" y="0" width="4" height="30" />
		<rect x="110" y="0" width="4" height="30" />
		<rect x="120" y="0" width="2" height="30" />
		<rect x="124" y="0" width="2" height="30" />
		<rect x="132" y="0" width="2" height="30" />
		<rect x="138" y="0" width="4" height="30" />
		<rect x="144" y="0" width="6" height="30" />
		<rect x="154" y="0" width="2" height="30" />
		<rect x="158" y="0" width="6" height="30" />
		<rect x="166" y="0" width="8" height="30" />
		<rect x="176" y="0" width="2" height="30" />
		<rect x="182" y="0" width="6" height="30" />
		<rect x="192" y="0" width="4" height="30" />
		<rect x="198" y="0" width="2" height="30" />
		<rect x="202" y="0" width="2" height="30" />
		<rect x="212" y="0" width="4" height="30" />
		<rect x="220" y="0" width="2" height="30" />
		<rect x="224" y="0" width="8" height="30" />
		<rect x="236" y="0" width="2" height="30" />
		<rect x="242" y="0" width="6" height="30" />
		<rect x="254" y="0" width="2" height="30" />
		<rect x="258" y="0" width="4" height="30" />
		<rect x="264" y="0" width="2" height="30" />
		<rect x="268" y="0" width="4" height="30" />
		<rect x="276" y="0" width="2" height="30" />
		<rect x="286" y="0" width="2" height="30" />
		<rect x="290" y="0" width="8" height="30" />
		<rect x="300" y="0" width="6" height="30" />
		<rect x="308" y="0" width="2" height="30" />
		<rect x="314" y="0" width="4" height="30" />
		<rect x="320" y="0" width="6" height="30" />
		<rect x="330" y="0" width="2" height="30" />
		<rect x="334" y="0" width="6" height="30" />
		<rect x="342" y="0" width="8" height="30" />
		<rect x="352" y="0" width="6" height="30" />
		<rect x="362" y="0" width="4" height="30" />
		<rect x="368" y="0" width="2" height="30" />
		<rect x="374" y="0" width="2" height="30" />
		<rect x="378" y="0" width="6" height="30" />
		<rect x="390" y="0" width="4" height="30" />
		<rect x="396" y="0" width="4" height="30" />
		<rect x="404" y="0" width="4" height="30" />
		<rect x="412" y="0" width="4" height="30" />
		<rect x="418" y="0" width="4" height="30" />
		<rect x="428" y="0" width="6" height="30" />
		<rect x="436" y="0" width="2" height="30" />
		<rect x="440" y="0" width="4" height="30" />
	</g>
</svg>
